# xmcd
#
# Track frame offsets:
#	150
#	19362
#	39975
#	68075
#	86075
#	102300
#	118012
#	129537
#	144887
#
# Disc length: 2285 seconds
#
# Revision: 1
# Processed by: cddbd v1.5.2PL0 Copyright (c) Steve Scherf et al.
# Submitted via: audiograbber 1.83.01
#
DISCID=7608eb09
DTITLE=Hammarlund, Jan - Dans På Våra Gator
DYEAR=1988
DGENRE=Alternative
TTITLE0=Tillbaka igen
TTITLE1=Mina händer
TTITLE2=Jag vill leva i Europa
TTITLE3=Stilla gryningsregn
TTITLE4=Dans på våra gator
TTITLE5=Vinterblås
TTITLE6=Pengar
TTITLE7=Fågel Fenix
TTITLE8=Alfonsina och havet
EXTD=
EXTT0=
EXTT1=
EXTT2=
EXTT3=
EXTT4=
EXTT5=
EXTT6=
EXTT7=
EXTT8=
PLAYORDER=
